<svg id="molecules" enable-background="new 0 0 300 300" height="512" viewBox="0 0 300 300" width="512" xmlns="http://www.w3.org/2000/svg"><g><path d="m253.958 195.813c-7.358 0-13.464 5.392-14.617 12.428l-15.723 1.747c-1.729-2.986-4.952-5.004-8.645-5.004-.896 0-1.76.13-2.587.352l-2.708-3.385c1.753-2.435 2.798-5.413 2.798-8.636 0-6.142-3.755-11.423-9.089-13.672l.792-6.334c7.135-1.069 12.629-7.22 12.629-14.647 0-.026-.004-.05-.004-.076l14.881-4.252c1.46.837 3.146 1.322 4.946 1.322 5.508 0 9.989-4.481 9.989-9.989s-4.481-9.989-9.989-9.989-9.989 4.481-9.989 9.989c0 .595.062 1.175.162 1.742l-12.215 3.49c-2.615-4.231-7.282-7.065-12.611-7.065-2.16 0-4.207.475-6.06 1.309l-3.391-4.069c1.65-2.39 2.622-5.282 2.622-8.4 0-3.906-1.53-7.454-4.007-10.106l3.767-5.651c.888.167 1.801.264 2.737.264 8.177 0 14.829-6.652 14.829-14.829s-6.652-14.829-14.829-14.829-14.829 6.652-14.829 14.829c0 4.346 1.891 8.248 4.879 10.963l-3.392 5.088c-1.27-.355-2.602-.559-3.984-.559-3.083 0-5.948.947-8.322 2.564l-5.687-7.311c1.459-1.737 2.341-3.973 2.341-6.413 0-5.508-4.481-9.989-9.99-9.989-5.508 0-9.989 4.481-9.989 9.989s4.481 9.99 9.989 9.99c.191 0 .378-.018.566-.029.14.406.33.801.609 1.159l6.921 8.898c-.809 1.829-1.266 3.847-1.266 5.972 0 .241.025.476.036.714l-11.916 3.972c-2.67-3.932-7.176-6.521-12.276-6.521-2.638 0-5.112.7-7.26 1.912l-9.53-9.531 3.039-6.078c.252.013.502.038.757.038 8.176 0 14.828-6.652 14.828-14.829s-6.652-14.829-14.828-14.829c-8.177 0-14.829 6.652-14.829 14.829 0 5.056 2.547 9.524 6.422 12.202l-3.011 6.023-19.03 4.757c-2.431-4.244-6.894-7.167-12.057-7.448l-4.427-19.921c2.951-1.738 4.942-4.94 4.942-8.606 0-.577-.06-1.139-.154-1.689l10.629-14.881c1.709.689 3.571 1.079 5.525 1.079 8.177 0 14.829-6.652 14.829-14.829s-6.652-14.829-14.829-14.829c-8.176 0-14.828 6.652-14.828 14.829 0 3.323 1.112 6.384 2.966 8.86l-9.151 12.812c-1.467-.847-3.163-1.34-4.976-1.34-2.216 0-4.258.734-5.917 1.959l-9.839-6.56c.167-.888.264-1.801.264-2.737 0-8.177-6.652-14.829-14.829-14.829-8.176 0-14.828 6.652-14.828 14.829s6.652 14.829 14.828 14.829c4.346 0 8.249-1.891 10.963-4.879l9.431 6.287c-.039.358-.062.721-.062 1.089 0 4.486 2.973 8.289 7.052 9.547l4.6 20.702c-4.655 2.504-7.828 7.421-7.828 13.067 0 8.177 6.652 14.829 14.829 14.829 8.035 0 14.582-6.427 14.808-14.408l18.618-4.654 9.968 9.968c-1.212 2.148-1.912 4.622-1.912 7.26 0 5.766 3.314 10.761 8.132 13.213l-2.067 7.234c-1.342-.4-2.76-.623-4.23-.623-8.177 0-14.829 6.652-14.829 14.829 0 3.752 1.412 7.172 3.717 9.786l-2.578 2.577c-1.129-.443-2.353-.695-3.638-.695-4.682 0-8.611 3.242-9.687 7.596l-17.976 3.091c-2.599-4.303-7.307-7.195-12.689-7.195-8.176 0-14.828 6.652-14.828 14.829s6.652 14.829 14.828 14.829c8.137 0 14.759-6.589 14.823-14.712l17.194-2.957c1.789 2.706 4.855 4.497 8.335 4.497 5.509 0 9.99-4.481 9.99-9.989 0-1.284-.252-2.508-.696-3.637l3.812-3.812c1.339.398 2.754.62 4.22.62 3.751 0 7.172-1.412 9.786-3.717l7.618 7.618c-1.212 2.148-1.912 4.622-1.912 7.26 0 8.177 6.652 14.829 14.828 14.829 8.177 0 14.829-6.652 14.829-14.829 0-.241-.025-.476-.036-.714l11.916-3.972c2.67 3.932 7.176 6.521 12.276 6.521 2.056 0 4.014-.422 5.796-1.181l2.693 3.366c-.733 1.389-1.152 2.967-1.152 4.644 0 2.43.874 4.659 2.322 6.392l-2.522 5.043c-.909-.175-1.846-.274-2.805-.274-8.177 0-14.829 6.652-14.829 14.829s6.652 14.829 14.829 14.829 14.829-6.652 14.829-14.829c0-4.345-1.89-8.247-4.877-10.962l2.532-5.064c.17.009.338.026.51.026 4.477 0 8.275-2.96 9.541-7.025l15.703-1.745c2.203 5.432 7.527 9.278 13.741 9.278 8.177 0 14.829-6.652 14.829-14.829s-6.653-14.831-14.829-14.831zm-17.327-52.134c1.097 0 1.989.893 1.989 1.989s-.893 1.989-1.989 1.989-1.989-.893-1.989-1.989.893-1.989 1.989-1.989zm-38.984-48.155c3.766 0 6.829 3.063 6.829 6.829s-3.063 6.829-6.829 6.829c-.992 0-1.933-.217-2.784-.6-.054-.024-.105-.055-.159-.077-2.294-1.102-3.886-3.442-3.886-6.153 0-3.765 3.063-6.828 6.829-6.828zm-69.305 0c3.765 0 6.828 3.063 6.828 6.829s-3.063 6.829-6.828 6.829c-3.766 0-6.829-3.063-6.829-6.829s3.064-6.829 6.829-6.829zm-82.3-16.663c-3.765 0-6.828-3.063-6.828-6.829s3.063-6.829 6.828-6.829c3.766 0 6.829 3.063 6.829 6.829s-3.064 6.829-6.829 6.829zm155.937 168.931c-3.766 0-6.829-3.063-6.829-6.829s3.063-6.829 6.829-6.829 6.829 3.063 6.829 6.829-3.063 6.829-6.829 6.829zm6.829-89.129c0 3.766-3.063 6.829-6.829 6.829s-6.829-3.063-6.829-6.829c0-3.765 3.063-6.829 6.829-6.829s6.829 3.064 6.829 6.829zm-28.487-32.818c3.766 0 6.829 3.063 6.829 6.829s-3.063 6.829-6.829 6.829-6.829-3.063-6.829-6.829 3.063-6.829 6.829-6.829zm-23.648-19.161c0-1.097.893-1.989 1.989-1.989 1.098 0 1.99.893 1.99 1.989 0 1.097-.893 1.99-1.99 1.99-1.096 0-1.989-.893-1.989-1.99zm-54.321-54.476c3.766 0 6.829 3.063 6.829 6.829 0 3.765-3.063 6.829-6.829 6.829-3.765 0-6.828-3.063-6.828-6.829s3.063-6.829 6.828-6.829zm-25.989 35.161c1.097 0 1.989.893 1.989 1.989 0 .933-.648 1.713-1.516 1.926-.222-.007-.446.011-.672.043-1.002-.102-1.79-.941-1.79-1.969 0-1.097.892-1.989 1.989-1.989zm8.663 52.134c-3.766 0-6.829-3.063-6.829-6.829s3.063-6.829 6.829-6.829 6.829 3.063 6.829 6.829-3.063 6.829-6.829 6.829zm56.31-.664c3.766 0 6.829 3.063 6.829 6.829s-3.063 6.829-6.829 6.829-6.829-3.063-6.829-6.829 3.064-6.829 6.829-6.829zm-70.673 78.301c-3.765 0-6.828-3.063-6.828-6.829s3.063-6.829 6.828-6.829c3.766 0 6.829 3.063 6.829 6.829s-3.064 6.829-6.829 6.829zm40.352-13.172c-1.097 0-1.989-.893-1.989-1.989s.893-1.989 1.989-1.989c1.098 0 1.99.893 1.99 1.989s-.892 1.989-1.99 1.989zm17.327-16.818c-3.766 0-6.829-3.063-6.829-6.829s3.063-6.829 6.829-6.829c3.765 0 6.828 3.063 6.828 6.829 0 3.765-3.063 6.829-6.828 6.829zm30.321 25.99c-3.765 0-6.828-3.063-6.828-6.829s3.063-6.829 6.828-6.829c3.766 0 6.829 3.063 6.829 6.829s-3.064 6.829-6.829 6.829zm12.275-15.138c-2.67-3.932-7.176-6.521-12.276-6.521-2.638 0-5.112.7-7.26 1.913l-8.852-8.853c.398-1.339.62-2.753.62-4.22 0-3.683-1.358-7.05-3.589-9.646.009-.029.023-.055.032-.084l2.901-10.153c7.627-.604 13.652-6.99 13.652-14.769 0-.241-.025-.476-.036-.714l11.915-3.972c2.67 3.932 7.176 6.521 12.276 6.521 2.16 0 4.208-.475 6.06-1.309l3.391 4.069c-1.65 2.39-2.622 5.282-2.622 8.4 0 6.143 3.755 11.424 9.09 13.672l-.792 6.333c-7.135 1.068-12.63 7.22-12.63 14.648 0 .241.025.476.036.714zm19.88-4.686c0-3.766 3.063-6.829 6.829-6.829s6.829 3.063 6.829 6.829-3.063 6.829-6.829 6.829-6.829-3.063-6.829-6.829zm24.155 23.647c-1.097 0-1.989-.893-1.989-1.99s.893-1.989 1.989-1.989c1.098 0 1.99.893 1.99 1.989 0 1.098-.892 1.99-1.99 1.99zm38.985.508c-3.766 0-6.829-3.063-6.829-6.829 0-3.765 3.063-6.829 6.829-6.829s6.829 3.063 6.829 6.829-3.064 6.829-6.829 6.829z"/></g></svg>