<svg height="512" viewBox="0 0 61 57" width="512" xmlns="http://www.w3.org/2000/svg"><g id="Page-1" fill="none" fill-rule="evenodd"><g id="051---Water-Molecule" fill="rgb(0,0,0)" fill-rule="nonzero"><path id="Shape" d="m31 5c-4.4162219.00495988-7.9950401 3.58377808-8 8 0 .5522847.4477153 1 1 1s1-.4477153 1-1c.0033074-3.31233757 2.6876624-5.99669262 6-6 .5522847 0 1-.44771525 1-1s-.4477153-1-1-1z"/><path id="Shape" d="m10 25c-2.76005315.0033061-4.99669388 2.2399468-5 5 .00000001.5522847.44771526 1 1 1s.99999999-.4477153 1-1c0-1.6568542 1.34314575-3 3-3 .5522847 0 1-.4477153 1-1s-.4477153-1-1-1z"/><path id="Shape" d="m52 25c-2.7600532.0033061-4.9966939 2.2399468-5 5 0 .5522847.4477153 1 1 1s1-.4477153 1-1c0-1.6568542 1.3431458-3 3-3 .5522847 0 1-.4477153 1-1s-.4477153-1-1-1z"/><path id="Shape" d="m52 21c-1.2927293.0013198-2.5697777.283137-3.743.826l-5.957-4.826c1.7785194-4.9763403.0922417-10.5303992-4.1527782-13.677922-4.2450199-3.1475228-10.0494237-3.1475228-14.2944436 0s-5.9312976 8.7015817-4.1527782 13.677922l-5.957 4.827c-3.81165527-1.7519921-8.3279278-.6472452-10.90045071 2.6664111-2.5725229 3.3136563-2.52324221 7.9628234.1189436 11.2212044 2.64218582 3.2583809 7.18086141 4.2671463 10.95452251 2.4347506 3.7736611-1.8323956 5.7876633-6.0229777 4.8609846-10.1143661l5.958-4.819c3.837619 2.3799908 8.692381 2.3799908 12.53 0l5.958 4.819c-.8344115 3.7295337.7775718 7.5793445 4.0203882 9.6016714s7.4092189 1.7761074 10.391271-.6140871c2.9820521-2.3901944 4.1293786-6.4030706 2.8615048-10.0083668-1.2678738-3.6052961-4.674429-6.0167096-8.496164-6.0142175zm-42 16c-2.93812424.0058194-5.56719951-1.8237832-6.58257503-4.5808868-1.01537553-2.7571037-.20093333-5.8548716 2.03916828-7.7560693 2.2401016-1.9011977 5.42906735-2.2011641 7.98440675-.7510439h.008c1.5506637.8806947 2.7088032 2.3176455 3.24 4.02.6568582 2.1241655.2655247 4.4340606-1.054334 6.2233383-1.3198587 1.7892778-3.4112583 2.8451211-5.634666 2.8446617zm8.068-10.964c-.5969982-1.207457-1.4558596-2.2665144-2.514-3.1l5-4.049c.6628589 1.1663779 1.5155494 2.2140753 2.523 3.1zm2.932-13.036c0-5.5228475 4.4771525-10 10-10s10 4.4771525 10 10-4.4771525 10-10 10c-5.5203344-.0060624-9.9939376-4.4796656-10-10zm17.925 8.987c1.0074506-.8859247 1.8601411-1.9336221 2.523-3.1l5 4.049c-1.0581404.8334856-1.9170018 1.892543-2.514 3.1zm13.075 15.013c-2.2222141-.0000311-4.3124053-1.0552081-5.6320267-2.8431776-1.3196213-1.7879695-1.7118915-4.096307-1.0569733-6.2198224.5309048-1.7019585 1.6887128-3.138584 3.239-4.019l.009-.006c2.5553394-1.4501202 5.7443052-1.1501538 7.9844068.7510439s3.0545438 4.9989656 2.0391682 7.7560693c-1.0153755 2.7571036-3.6444508 4.5867062-6.582575 4.5808868z"/><path id="Shape" d="m15 41c-.5522847 0-1 .4477153-1 1v6h-8v-6c0-.5522847-.44771525-1-1-1s-1 .4477153-1 1v14c0 .5522847.44771525 1 1 1s1-.4477153 1-1v-6h8v6c0 .5522847.4477153 1 1 1s1-.4477153 1-1v-14c0-.5522847-.4477153-1-1-1z"/><path id="Shape" d="m57 41c-.5522847 0-1 .4477153-1 1v6h-8v-6c0-.5522847-.4477153-1-1-1s-1 .4477153-1 1v14c0 .5522847.4477153 1 1 1s1-.4477153 1-1v-6h8v6c0 .5522847.4477153 1 1 1s1-.4477153 1-1v-14c0-.5522847-.4477153-1-1-1z"/><path id="Shape" d="m31 28c-3.3123376.0033074-5.9966926 2.6876624-6 6v4c.0000001 3.3137084 2.6862916 5.9999999 6 5.9999999s5.9999999-2.6862915 6-5.9999999v-4c-.0033074-3.3123376-2.6876624-5.9966926-6-6zm4 10c0 2.209139-1.790861 4-4 4s-4-1.790861-4-4v-4c0-2.209139 1.790861-4 4-4s4 1.790861 4 4z"/></g></g></svg>